<svg width="59" height="54" viewBox="0 0 59 54" fill="none" xmlns="http://www.w3.org/2000/svg">
<g clip-path="url(#clip0_251_83)">
<path d="M59 27C59 12.0884 45.7923 0 29.5 0C13.2077 0 0 12.0882 0 27C0 40.4764 10.7878 51.6466 24.8906 53.672V34.8047H17.4004V27H24.8906V21.0516C24.8906 14.2847 29.2949 10.5469 36.0331 10.5469C39.2608 10.5469 42.6367 11.0742 42.6367 11.0742V17.7188H38.917C35.252 17.7188 34.1094 19.8001 34.1094 21.9354V27H42.291L40.9831 34.8047H34.1094V53.672C48.2122 51.6466 59 40.4766 59 27Z" fill="#1877F2"/>
<path d="M40.9831 34.8047L42.291 27H34.1094V21.9354C34.1094 19.7999 35.2523 17.7188 38.917 17.7188H42.6367V11.0742C42.6367 11.0742 39.2608 10.5469 36.0331 10.5469C29.2949 10.5469 24.8906 14.2847 24.8906 21.0516V27H17.4004V34.8047H24.8906V53.672C26.4154 53.8907 27.9566 54.0004 29.5 54C31.0434 54.0004 32.5846 53.8908 34.1094 53.672V34.8047H40.9831Z" fill="white"/>
</g>
<defs>
<clipPath id="clip0_251_83">
<rect width="59" height="54" fill="white"/>
</clipPath>
</defs>
</svg>
