<svg width="50" height="52" viewBox="0 0 50 52" fill="none" xmlns="http://www.w3.org/2000/svg">
<g clip-path="url(#clip0_251_92)">
<path d="M11.3637 51.7441V25.0947L5.37246 17.5337L0 13.3379V47.0412C0 49.6433 1.52832 51.7441 3.40918 51.7441H11.3637Z" fill="#4285F4"/>
<path d="M38.6363 51.744H46.5908C48.4773 51.744 50 49.6355 50 47.0411V13.3381L43.9148 18.144L38.6363 25.0947V51.744Z" fill="#34A853"/>
<path d="M11.3637 25.0947L10.5484 14.682L11.3637 4.71606L25 18.8245L38.6363 4.71606L39.5482 14.144L38.6363 25.0947L25 39.2031L11.3637 25.0947Z" fill="#EA4335"/>
<path d="M38.6363 4.71614V25.0948L50 13.3379V7.06746C50 1.25181 45.1875 -2.06353 41.8184 1.42425L38.6363 4.71614Z" fill="#FBBC04"/>
<path d="M0 13.3379L5.22637 18.7454L11.3637 25.0948V4.71614L8.18164 1.42425C4.80664 -2.06379 0 1.25181 0 7.06719V13.3376V13.3379Z" fill="#C5221F"/>
</g>
<defs>
<clipPath id="clip0_251_92">
<rect width="50" height="52" fill="white"/>
</clipPath>
</defs>
</svg>
