<svg width="53" height="52" viewBox="0 0 53 52" fill="none" xmlns="http://www.w3.org/2000/svg">
<g clip-path="url(#clip0_252_111)">
<path d="M4.00688 44.5143L6.34427 48.9423C6.82996 49.8746 7.52807 50.6072 8.34771 51.1399C10.6954 47.8714 12.3293 45.3631 13.2502 43.6153C14.1845 41.8416 15.3329 39.067 16.6954 35.2919C13.0235 34.7617 10.241 34.4967 8.34791 34.4967C6.5308 34.4967 3.7483 34.7617 0 35.2919C0 36.324 0.242848 37.356 0.728543 38.2884L4.00688 44.5143Z" fill="#0066DA"/>
<path d="M44.6527 51.1399C45.4725 50.6072 46.1707 49.8746 46.6561 48.9425L47.6275 47.1114L52.2721 38.2884C52.7488 37.3762 52.9999 36.3433 53.0004 35.2919C49.2304 34.7617 46.4531 34.4967 44.668 34.4967C42.7497 34.4967 39.9721 34.7617 36.3354 35.2919C37.6818 39.0877 38.815 41.8623 39.7353 43.6153C40.6634 45.384 42.3025 47.892 44.6527 51.1399Z" fill="#EA4335"/>
<path d="M26.5002 16.647C29.2165 13.049 31.0884 10.2744 32.1159 8.32363C32.9434 6.75273 33.8542 4.24447 34.8479 0.799074C34.0283 0.266358 33.0873 0 32.1159 0H20.8845C19.9131 0 18.9723 0.299738 18.1525 0.799074C19.4166 4.75062 20.4895 7.56293 21.3706 9.23579C22.3445 11.0846 24.0543 13.555 26.5002 16.647Z" fill="#00832D"/>
<path d="M36.305 35.2919H16.6954L8.34792 51.1398C9.16735 51.6726 10.1083 51.9389 11.0797 51.9389H41.9207C42.8921 51.9389 43.8333 51.6392 44.6527 51.1396L36.3052 35.2919H36.305Z" fill="#2684FC"/>
<path d="M26.5002 16.6471L18.1527 0.799316C17.3329 1.33203 16.6348 2.06435 16.1491 2.99671L0.728543 32.2954C0.251776 33.2076 0.000629887 34.2405 0 35.2919H16.6954L26.5002 16.6471Z" fill="#00AC47"/>
<path d="M44.5618 17.6459L36.8514 2.99647C36.3659 2.0641 35.6676 1.33179 34.8479 0.799072L26.5004 16.647L36.305 35.2919H52.9702C52.9702 34.2596 52.7273 33.2278 52.2416 32.2954L44.5618 17.6459Z" fill="#FFBA00"/>
</g>
<defs>
<clipPath id="clip0_252_111">
<rect width="53" height="52" fill="white"/>
</clipPath>
</defs>
</svg>
