<svg width="59" height="58" viewBox="0 0 59 58" fill="none" xmlns="http://www.w3.org/2000/svg">
<g clip-path="url(#clip0_251_78)">
<path d="M45.1719 0H13.8281C6.19106 0 0 6.08613 0 13.5938V44.4062C0 51.9139 6.19106 58 13.8281 58H45.1719C52.8089 58 59 51.9139 59 44.4062V13.5938C59 6.08613 52.8089 0 45.1719 0Z" fill="url(#paint0_radial_251_78)"/>
<path d="M45.1719 0H13.8281C6.19106 0 0 6.08613 0 13.5938V44.4062C0 51.9139 6.19106 58 13.8281 58H45.1719C52.8089 58 59 51.9139 59 44.4062V13.5938C59 6.08613 52.8089 0 45.1719 0Z" fill="url(#paint1_radial_251_78)"/>
<path d="M29.5021 6.34375C23.243 6.34375 22.4573 6.37071 19.9992 6.48059C17.5456 6.59116 15.8708 6.97291 14.4054 7.5332C12.8894 8.11184 11.6036 8.88601 10.3227 10.1457C9.0406 11.4052 8.25309 12.6691 7.66263 14.1588C7.09106 15.5997 6.70226 17.2468 6.59187 19.6577C6.48193 22.0744 6.45312 22.847 6.45312 29.0002C6.45312 35.1534 6.48078 35.9233 6.59233 38.3398C6.70526 40.7518 7.0936 42.3982 7.66309 43.8387C8.25216 45.329 9.03968 46.593 10.3211 47.8523C11.6018 49.1126 12.8876 49.8886 14.4025 50.4673C15.8689 51.0275 17.544 51.4093 19.9971 51.5199C22.4555 51.6297 23.2405 51.6567 29.4993 51.6567C35.7591 51.6567 36.5422 51.6297 39.0004 51.5199C41.454 51.4093 43.1306 51.0275 44.5971 50.4673C46.1124 49.8886 47.3964 49.1126 48.6768 47.8523C49.9589 46.593 50.7462 45.329 51.3369 43.8394C51.9034 42.3982 52.2924 40.7513 52.4077 38.3403C52.5181 35.9237 52.5469 35.1534 52.5469 29.0002C52.5469 22.847 52.5181 22.0749 52.4077 19.6581C52.2924 17.2462 51.9034 15.6 51.3369 14.1595C50.7462 12.6691 49.9589 11.4052 48.6768 10.1457C47.395 8.88555 46.1129 8.11139 44.5957 7.53343C43.1265 6.97291 41.4507 6.59093 38.9972 6.48059C36.5387 6.37071 35.7561 6.34375 29.4949 6.34375H29.5021ZM27.4345 10.4266C28.0483 10.4257 28.733 10.4266 29.5021 10.4266C35.6558 10.4266 36.385 10.4484 38.8151 10.5569C41.0622 10.658 42.2818 11.027 43.0942 11.3372C44.1698 11.7477 44.9366 12.2387 45.7427 13.0319C46.5494 13.8248 47.0486 14.58 47.4673 15.6373C47.7829 16.4348 48.1588 17.6338 48.2611 19.8428C48.3715 22.2312 48.3954 22.9485 48.3954 28.995C48.3954 35.0415 48.3715 35.759 48.2611 38.1472C48.1583 40.3562 47.7829 41.5552 47.4673 42.3529C47.0497 43.4103 46.5494 44.1632 45.7427 44.9557C44.9361 45.7486 44.1703 46.2394 43.0942 46.6501C42.2827 46.9617 41.0622 47.3298 38.8151 47.4309C36.3855 47.5394 35.6558 47.5629 29.5021 47.5629C23.3481 47.5629 22.6187 47.5394 20.1893 47.4309C17.9422 47.3289 16.7226 46.9598 15.9095 46.6497C14.8341 46.2389 14.0657 45.7482 13.2591 44.9552C12.4525 44.1622 11.9533 43.4089 11.5345 42.3511C11.219 41.5534 10.8431 40.3544 10.7408 38.1454C10.6304 35.757 10.6082 35.0397 10.6082 28.9894C10.6082 22.9392 10.6304 22.2256 10.7408 19.8371C10.8436 17.6281 11.219 16.4292 11.5345 15.6305C11.9523 14.5732 12.4525 13.818 13.2593 13.0251C14.066 12.2321 14.8341 11.7411 15.9097 11.3297C16.7221 11.0182 17.9422 10.65 20.1893 10.5485C22.3154 10.454 23.1393 10.4257 27.4345 10.421V10.4266ZM41.8045 14.1885C40.2776 14.1885 39.0389 15.4051 39.0389 16.9063C39.0389 18.4073 40.2776 19.6251 41.8045 19.6251C43.3314 19.6251 44.5701 18.4073 44.5701 16.9063C44.5701 15.4053 43.3314 14.1876 41.8045 14.1876V14.1885ZM29.5021 17.3651C22.966 17.3651 17.6666 22.5747 17.6666 29.0002C17.6666 35.4258 22.966 40.6329 29.5021 40.6329C36.0384 40.6329 41.336 35.4258 41.336 29.0002C41.336 22.5749 36.0379 17.3651 29.5016 17.3651H29.5021ZM29.5021 21.448C33.7448 21.448 37.1845 24.829 37.1845 29.0002C37.1845 33.171 33.7448 36.5525 29.5021 36.5525C25.2591 36.5525 21.8199 33.171 21.8199 29.0002C21.8199 24.829 25.2591 21.448 29.5021 21.448Z" fill="white"/>
</g>
<defs>
<radialGradient id="paint0_radial_251_78" cx="0" cy="0" r="1" gradientUnits="userSpaceOnUse" gradientTransform="translate(15.6719 62.4671) rotate(-90) scale(57.4823 54.3849)">
<stop stop-color="#FFDD55"/>
<stop offset="0.1" stop-color="#FFDD55"/>
<stop offset="0.5" stop-color="#FF543E"/>
<stop offset="1" stop-color="#C837AB"/>
</radialGradient>
<radialGradient id="paint1_radial_251_78" cx="0" cy="0" r="1" gradientUnits="userSpaceOnUse" gradientTransform="translate(-9.88273 4.17804) rotate(78.491) scale(25.7121 107.669)">
<stop stop-color="#3771C8"/>
<stop offset="0.128" stop-color="#3771C8"/>
<stop offset="1" stop-color="#6600FF" stop-opacity="0"/>
</radialGradient>
<clipPath id="clip0_251_78">
<rect width="59" height="58" fill="white"/>
</clipPath>
</defs>
</svg>
