<svg width="60" height="51" viewBox="0 0 60 51" fill="none" xmlns="http://www.w3.org/2000/svg">
<g clip-path="url(#clip0_251_105)">
<path d="M30 0C22.0453 0 14.4094 2.68826 8.78906 7.46871C3.16295 12.2511 0.00155845 18.7368 0 25.5C0 32.2603 3.16406 38.7508 8.78906 43.5313C14.4094 48.3117 22.0453 51 30 51C37.9547 51 45.5906 48.3117 51.2109 43.5313C56.8359 38.7508 60 32.2603 60 25.5C60 18.7397 56.8359 12.2492 51.2109 7.46871C45.5906 2.68826 37.9547 0 30 0Z" fill="url(#paint0_linear_251_105)"/>
<path d="M13.5797 25.2307C22.3266 21.9922 28.1578 19.857 31.0734 18.8254C39.4078 15.8798 41.1375 15.3682 42.2672 15.3509C42.5156 15.3475 43.0687 15.3997 43.4297 15.6477C43.7297 15.8569 43.8141 16.1398 43.8562 16.3384C43.8937 16.5368 43.9453 16.989 43.9031 17.3421C43.4531 21.3742 41.4984 31.1591 40.5047 35.6754C40.0875 37.5863 39.2578 38.2269 38.4563 38.2895C36.7125 38.4258 35.3906 37.3109 33.7031 36.371C31.0641 34.8996 29.5734 33.984 27.0094 32.5484C24.0469 30.8893 25.9687 29.9773 27.6562 28.4871C28.0969 28.0971 35.775 22.1623 35.9203 21.6241C35.9391 21.5567 35.9578 21.3057 35.7797 21.1734C35.6063 21.0407 35.3484 21.0862 35.1609 21.122C34.8938 21.173 30.6797 23.5429 22.5047 28.2313C21.3094 28.9302 20.2266 29.2709 19.2516 29.2529C18.1828 29.2334 16.1203 28.7382 14.5875 28.315C12.7125 27.7959 11.2172 27.5213 11.3484 26.6396C11.4141 26.1806 12.1594 25.7108 13.5797 25.2307Z" fill="white"/>
</g>
<defs>
<linearGradient id="paint0_linear_251_105" x1="3000" y1="0" x2="3000" y2="5100" gradientUnits="userSpaceOnUse">
<stop stop-color="#2AABEE"/>
<stop offset="1" stop-color="#229ED9"/>
</linearGradient>
<clipPath id="clip0_251_105">
<rect width="60" height="51" fill="white"/>
</clipPath>
</defs>
</svg>
