<svg width="60" height="57" viewBox="0 0 60 57" fill="none" xmlns="http://www.w3.org/2000/svg">
<g clip-path="url(#clip0_251_74)">
<path d="M1.28039 28.1588C1.27899 32.9479 2.60649 37.6241 5.1307 41.7458L1.03899 55.8284L16.3277 52.0496C20.5564 54.2196 25.2943 55.3566 30.109 55.3569H30.1216C46.0158 55.3569 58.954 43.1653 58.9608 28.1803C58.9638 20.9189 55.9666 14.0909 50.5212 8.9538C45.0766 3.81717 37.8356 0.986834 30.1205 0.983521C14.2245 0.983521 1.28719 13.1745 1.28063 28.1588" fill="url(#paint0_linear_251_74)"/>
<path d="M0.250781 28.15C0.249141 33.1115 1.62422 37.9549 4.23844 42.2242L0 56.8115L15.837 52.8973C20.2005 55.14 25.1135 56.3224 30.1127 56.3242H30.1256C46.59 56.3242 59.993 43.694 60 28.1726C60.0028 20.6503 56.8978 13.5768 51.2578 8.25572C45.6171 2.93528 38.1171 0.00309302 30.1256 0C13.6584 0 0.257344 12.6284 0.250781 28.15ZM9.68203 41.4889L9.0907 40.6041C6.60492 36.8783 5.29289 32.5728 5.29477 28.1518C5.30016 15.2506 16.4386 4.75442 30.135 4.75442C36.7678 4.75707 43.0013 7.19437 47.6897 11.6165C52.3779 16.0391 54.9577 21.918 54.956 28.1708C54.9499 41.072 43.8112 51.5695 30.1256 51.5695H30.1158C25.6596 51.5673 21.2892 50.4393 17.4778 48.3075L16.5708 47.8005L7.17281 50.1231L9.68203 41.4887V41.4889Z" fill="url(#paint1_linear_251_74)"/>
<path d="M22.6589 16.3816C22.0997 15.21 21.5112 15.1863 20.9794 15.1658C20.5439 15.1481 20.0461 15.1494 19.5487 15.1494C19.0509 15.1494 18.2421 15.326 17.5584 16.0296C16.8741 16.7339 14.9456 18.436 14.9456 21.8977C14.9456 25.3597 17.6205 28.7053 17.9934 29.1752C18.3668 29.6442 23.1574 36.9756 30.7446 39.796C37.0502 42.1398 38.3334 41.6737 39.702 41.5561C41.0707 41.439 44.1185 39.8545 44.7403 38.2115C45.3626 36.5686 45.3626 35.1604 45.176 34.8661C44.9895 34.573 44.4916 34.3969 43.7452 34.0452C42.9984 33.6932 39.3286 31.9909 38.6445 31.7561C37.9601 31.5215 37.4625 31.4044 36.9647 32.1089C36.4669 32.8124 35.0374 34.3969 34.6017 34.8661C34.1665 35.3365 33.7308 35.395 32.9845 35.0431C32.2376 34.6901 29.8336 33.9479 26.9815 31.5511C24.7624 29.686 23.2643 27.3828 22.8288 26.6782C22.3934 25.9748 22.7822 25.5935 23.1565 25.2429C23.4919 24.9276 23.9032 24.4212 24.2768 24.0105C24.649 23.5996 24.7732 23.3064 25.0221 22.8371C25.2713 22.3674 25.1466 21.9565 24.9602 21.6046C24.7732 21.2526 23.3227 17.7728 22.6589 16.3816Z" fill="white"/>
</g>
<defs>
<linearGradient id="paint0_linear_251_74" x1="2897.13" y1="5485.47" x2="2897.13" y2="0.983521" gradientUnits="userSpaceOnUse">
<stop stop-color="#1FAF38"/>
<stop offset="1" stop-color="#60D669"/>
</linearGradient>
<linearGradient id="paint1_linear_251_74" x1="3000" y1="5681.15" x2="3000" y2="0" gradientUnits="userSpaceOnUse">
<stop stop-color="#F9F9F9"/>
<stop offset="1" stop-color="white"/>
</linearGradient>
<clipPath id="clip0_251_74">
<rect width="60" height="57" fill="white"/>
</clipPath>
</defs>
</svg>
